<svg id="Layer_1" data-name="Layer 1" xmlns="http://www.w3.org/2000/svg" width="19.34" height="16.39" viewBox="0 0 19.34 16.39"><title>settings</title><path d="M698.8,501.45a3.85,3.85,0,0,0-7.34,0h-9.38v2.35h9.36a3.85,3.85,0,0,0,7.37,0h2.61v-2.35Zm-3.67,2.73a1.53,1.53,0,1,1,1.53-1.53A1.53,1.53,0,0,1,695.13,504.18Z" transform="translate(-682.08 -498.77)"/><path d="M688.36,507.41a3.87,3.87,0,0,0-3.68,2.73h-2.59v2.35h2.61a3.85,3.85,0,0,0,7.33,0h9.37v-2.35H692A3.87,3.87,0,0,0,688.36,507.41Zm0,5.41a1.53,1.53,0,1,1,1.53-1.53A1.53,1.53,0,0,1,688.36,512.82Z" transform="translate(-682.08 -498.77)"/></svg>